<svg width="14" height="14" viewBox="0 0 14 14" fill="none" xmlns="http://www.w3.org/2000/svg">
<g clip-path="url(#clip0_60_1396)">
<path d="M10.963 0C11.287 0.057541 11.4985 0.169609 11.7426 0.382237C12.2935 0.861745 13.1564 1.71664 13.6284 2.26958C13.8309 2.5066 13.9405 2.72662 13.9972 3.0357C13.9898 3.12365 14.0076 3.22367 13.9972 3.30916C13.9868 3.39464 13.9262 3.60398 13.8934 3.68399C13.7646 3.99718 12.8811 4.86249 12.5902 5.11485C12.3951 5.28391 12.23 5.45078 11.9875 5.22417C10.8917 4.09802 9.73403 3.02282 8.67386 1.86679C8.64811 1.74377 8.66098 1.63745 8.74974 1.54593C9.32202 1.0867 9.88991 0.0931616 10.6624 0H10.9632L10.963 0Z" fill="#838282"/>
<path d="M2.67554 9.54849L1.83645 9.54795L1.40772 11.0747L2.94319 12.6015L4.4403 12.1724L4.45756 11.3399C4.18389 11.161 3.58532 11.0602 3.84283 10.6119L9.9373 4.51229C10.0855 4.40351 10.2052 4.39775 10.3589 4.50023C10.5518 4.62901 11.3437 5.44171 11.5095 5.64639C11.6448 5.81353 11.6897 5.93601 11.5506 6.12617L4.94738 12.6738L0.412479 13.9896C0.167298 14.0493 -0.0584337 13.8397 0.013614 13.5901L1.32828 9.05309C3.16892 7.15068 5.05367 5.28662 6.91787 3.40558C7.20031 3.12062 7.50767 2.72029 7.81888 2.47479C7.98516 2.34381 8.10981 2.30216 8.29773 2.43369C8.49525 2.57206 9.28394 3.37654 9.44584 3.58231C9.59268 3.76891 9.61295 3.87303 9.4705 4.07251L3.33411 10.1847C2.91552 10.3395 2.83005 9.81757 2.67582 9.54877L2.67554 9.54849Z" fill="#838282"/>
</g>
<defs>
<clipPath id="clip0_60_1396">
<rect width="14" height="14" fill="white"/>
</clipPath>
</defs>
</svg>
