<svg width="15" height="15" viewBox="0 0 15 15" fill="none" xmlns="http://www.w3.org/2000/svg">
<path d="M6.67834 7.54428L9.77209 10.638C9.83178 10.6957 9.87939 10.7647 9.91215 10.8409C9.9449 10.9172 9.96215 10.9992 9.96287 11.0822C9.96359 11.1651 9.94777 11.2474 9.91635 11.3243C9.88492 11.4011 9.83852 11.4708 9.77983 11.5295C9.72115 11.5882 9.65137 11.6346 9.57456 11.666C9.49775 11.6975 9.41545 11.7133 9.33246 11.7126C9.24947 11.7118 9.16746 11.6946 9.09121 11.6618C9.01496 11.6291 8.94599 11.5815 8.88834 11.5218L5.35271 7.98616C5.23554 7.86895 5.16972 7.71001 5.16972 7.54428C5.16972 7.37855 5.23554 7.21961 5.35271 7.10241L8.88834 3.56678C8.94599 3.50709 9.01496 3.45947 9.09121 3.42672C9.16746 3.39396 9.24947 3.37672 9.33246 3.376C9.41545 3.37528 9.49775 3.39109 9.57456 3.42252C9.65137 3.45394 9.72115 3.50035 9.77983 3.55903C9.83852 3.61772 9.88492 3.6875 9.91635 3.76431C9.94777 3.84112 9.96359 3.92342 9.96287 4.00641C9.96215 4.08939 9.9449 4.17141 9.91215 4.24766C9.87939 4.32391 9.83178 4.39288 9.77209 4.45053L6.67834 7.54428Z" fill="#697077"/>
</svg>
